<?xml version="1.0" standalone="no"?>
<!DOCTYPE svg PUBLIC "-//W3C//DTD SVG 20010904//EN"
 "http://www.w3.org/TR/2001/REC-SVG-20010904/DTD/svg10.dtd">
<svg version="1.0" xmlns="http://www.w3.org/2000/svg"
 width="511.000000pt" height="488.000000pt" viewBox="0 0 511.000000 488.000000"
 preserveAspectRatio="xMidYMid meet">

<g transform="translate(0.000000,488.000000) scale(0.100000,-0.100000)"
fill="#000000" stroke="none" > 
<path d="M1800 3511 c-77 -24 -141 -84 -159 -148 -7 -25 -11 -287 -11 -761 0
-692 1 -724 19 -760 23 -44 62 -82 111 -108 33 -18 72 -19 770 -19 734 0 735
0 775 22 47 25 86 65 109 110 14 29 16 111 16 769 l0 736 -26 49 c-29 52 -80
93 -135 109 -40 12 -1431 12 -1469 1z m269 -338 c64 -49 86 -122 56 -187 -62
-129 -259 -104 -281 36 -4 20 -4 48 0 62 8 34 54 86 91 102 38 18 100 11 134
-13z m1099 -130 l3 -123 -41 0 -40 0 0 90 c0 73 -3 90 -15 90 -11 0 -15 11
-15 36 l0 35 53 -3 52 -3 3 -122z m-230 7 l-3 -50 -350 -1 -350 0 -3 50 -3 51
356 0 356 0 -3 -50z m-869 -307 c114 -86 79 -252 -58 -270 -104 -14 -192 81
-167 181 8 34 54 86 91 102 38 18 100 11 134 -13z m1124 -32 c30 -30 27 -81
-7 -125 l-27 -36 31 0 c29 0 31 -2 28 -32 l-3 -33 -92 -3 c-71 -2 -93 0 -93
10 0 7 25 44 55 81 30 38 55 75 55 83 0 19 -26 18 -34 -2 -4 -10 -16 -14 -38
-12 -28 3 -33 6 -30 28 1 14 14 36 29 49 22 19 34 22 66 18 22 -3 49 -15 60
-26z m-255 -93 l3 -48 -355 0 -356 0 0 50 0 50 353 -2 352 -3 3 -47z m-867
-311 c89 -59 89 -185 0 -244 -94 -63 -231 8 -231 120 0 57 42 122 90 140 39
14 108 6 141 -16z m1139 -8 c0 -7 -9 -27 -21 -46 l-21 -34 26 -24 c56 -52 11
-145 -71 -145 -41 1 -63 13 -81 47 -19 35 -14 43 23 43 19 0 35 -4 35 -10 0
-11 33 -14 43 -4 13 14 -7 34 -34 34 -33 0 -35 9 -14 50 l16 30 -36 0 c-33 0
-35 2 -35 35 l0 35 85 0 c57 0 85 -4 85 -11z m-272 -111 l-3 -53 -350 0 -350
0 -3 53 -3 52 356 0 356 0 -3 -52z"/>
<path d="M1959 3119 c-27 -10 -49 -46 -49 -80 0 -31 44 -69 80 -69 38 0 80 39
80 74 0 29 -36 72 -65 79 -11 3 -32 1 -46 -4z"/>
<path d="M1959 2689 c-27 -10 -49 -45 -49 -78 0 -10 9 -30 21 -45 28 -35 80
-36 114 -1 31 30 32 66 3 99 -28 30 -55 37 -89 25z"/>
<path d="M1931 2234 c-12 -15 -21 -37 -21 -49 0 -12 9 -34 21 -49 16 -20 29
-26 59 -26 30 0 43 6 59 26 12 15 21 37 21 49 0 12 -9 34 -21 49 -16 20 -29
26 -59 26 -30 0 -43 -6 -59 -26z"/>
</g>
</svg>
